<?xml version="1.0" encoding="UTF-8" standalone="no"?>
<!DOCTYPE svg PUBLIC "-//W3C//DTD SVG 1.1//EN" "http://www.w3.org/Graphics/SVG/1.1/DTD/svg11.dtd">
<svg width="100%" height="100%" viewBox="0 0 2295 1655" version="1.1" xmlns="http://www.w3.org/2000/svg" xmlns:xlink="http://www.w3.org/1999/xlink" xml:space="preserve" xmlns:serif="http://www.serif.com/" style="fill-rule:evenodd;clip-rule:evenodd;stroke-linejoin:round;stroke-miterlimit:2;">
    <g transform="matrix(1,0,0,1,-695.114,-569.425)">
        <g transform="matrix(1,0,0,1,-992.126,-1749.55)">
            <g>
                <path d="M1760.28,2897.47C1773.52,2897.47 1786.77,2897.75 1800,2897.38C1811.24,2897.06 1817.73,2901.65 1820.41,2912.86C1842.31,3004.47 1873.61,3093.46 1896.8,3184.73C1901.22,3202.13 1906.85,3219.23 1912.31,3236.34C1913.51,3240.07 1913.95,3245.97 1918.95,3246.09C1924.5,3246.23 1926.47,3240.74 1927.62,3236.15C1932.51,3216.63 1939.56,3197.81 1945.73,3178.7C1970.2,3102.85 1993.52,3026.64 2017.32,2950.58C2021.42,2937.47 2026.04,2924.52 2029.91,2911.36C2032.71,2901.81 2038.59,2897.95 2048.41,2897.4C2084.3,2895.39 2085.16,2896.11 2095.88,2930.84C2125.34,3026.29 2155.11,3121.65 2187.01,3216.33C2189.36,3223.3 2190.26,3230.75 2192.25,3237.86C2193.25,3241.4 2195.05,3245.21 2199.57,3245.12C2204.15,3245.02 2205.39,3240.94 2206.5,3237.48C2212.15,3219.85 2217.77,3202.22 2223.12,3184.5C2236.7,3139.47 2250.22,3094.41 2263.62,3049.32C2276.86,3004.78 2290.31,2960.29 2302.78,2915.53C2306.36,2902.67 2312.41,2896.96 2326,2897.3C2352.47,2897.98 2378.96,2897.65 2405.44,2897.44C2417.51,2897.35 2421.67,2901.84 2418,2914.03C2400.77,2971.15 2384.11,3028.46 2366.89,3085.59C2359.24,3110.95 2351.64,3136.31 2343.99,3161.67C2329.65,3209.24 2315.19,3256.78 2300.13,3304.12C2284.14,3354.41 2270.67,3405.47 2252.91,3455.23C2246.01,3474.57 2241.96,3494.95 2236.91,3514.94C2232.95,3530.63 2221.28,3531.04 2208.36,3530.77C2195.87,3530.51 2184.65,3531.23 2179.56,3515.4C2150.8,3425.83 2121.22,3336.54 2092.21,3247.06C2084.22,3222.4 2077.47,3197.34 2069.55,3172.66C2068.14,3168.24 2067.07,3160.7 2060.37,3161.67C2055.32,3162.4 2055.24,3169.1 2053.91,3173.52C2030.17,3252.5 2004.85,3330.98 1979.42,3409.44C1967.86,3445.1 1956.18,3480.78 1945.64,3516.77C1942.76,3526.6 1937.84,3531.1 1927.73,3530.55C1921.39,3530.22 1914.99,3530.16 1908.67,3530.63C1895.93,3531.55 1889.43,3525.76 1886.15,3513.5C1864.74,3433.33 1837.96,3354.74 1815.19,3274.94C1787.05,3176.32 1755.09,3078.8 1724.82,2980.79C1718.12,2959.11 1711.76,2937.32 1704.88,2915.7C1701.09,2903.8 1703.66,2897.19 1717.39,2897.41C1731.68,2897.66 1745.98,2897.47 1760.28,2897.47" style="fill:rgb(34,179,95);fill-rule:nonzero;"/>
            </g>
        </g>
        <g transform="matrix(1,0,0,1,-992.126,-3052.17)">
            <g>
                <path d="M3510.1,4044.35C3465.78,4047.29 3425.35,4038.05 3385.57,4029.5C3336.9,4019.03 3292.74,3995.69 3251.65,3967.17C3212.7,3940.13 3172.65,3914.67 3135.04,3885.71C3094.99,3854.88 3054.29,3824.85 3015.04,3793.02C2991.01,3773.54 2966.38,3772.33 2941.53,3796.08C2904.07,3831.88 2862.16,3862.46 2825.09,3898.81C2792.04,3931.21 2754.05,3958.23 2720.82,3990.81C2674.63,4036.09 2620.25,4070.21 2562.08,4098.28C2545.59,4106.23 2529.56,4109.58 2510.29,4104.8C2494.79,4100.95 2478.27,4099.17 2462.46,4095.45C2440.7,4090.32 2420.16,4081.72 2403.7,4066.07C2391.43,4054.42 2392.52,4045.32 2407.2,4037.17C2479.65,3996.95 2539.28,3941.28 2597.55,3883.32C2639.13,3841.96 2680.62,3800.35 2723.65,3760.53C2770.25,3717.42 2822.42,3681.26 2879.02,3651.96C2912.37,3634.7 2949.04,3628.14 2985.43,3622.72C3003.79,3619.98 3022.93,3626.62 3040.01,3635.46C3066.62,3649.22 3087.27,3670.64 3108.75,3690.77C3128.82,3709.58 3148.03,3729.35 3167.13,3749.18C3201.74,3785.13 3242.31,3813.91 3282,3843.53C3317.07,3869.69 3353.58,3894.29 3393.63,3912.46C3442.65,3934.7 3492.02,3954.2 3546.98,3960.19C3583.6,3964.17 3620.57,3965.53 3657.02,3971.34C3670.25,3973.44 3682.42,3978.68 3694.52,3983.85C3704.76,3988.22 3705.91,3994.51 3697.41,4003.19C3687.71,4013.09 3675.37,4018.79 3663.25,4022.7C3636.23,4031.42 3608.47,4039.48 3580.01,4040.57C3555.72,4041.51 3531.78,4048.4 3510.1,4044.35" style="fill:rgb(0,113,186);fill-rule:nonzero;stroke:rgb(35,31,32);stroke-width:1px;"/>
            </g>
        </g>
        <g transform="matrix(1,0,0,1,-992.126,-1754.94)">
            <g>
                <path d="M2942.09,3214.38C2942.09,3118.02 2942.08,3021.66 2942.1,2925.3C2942.1,2903.86 2943.06,2902.88 2964.34,2902.85C2987.64,2902.82 3010.95,2903.37 3034.23,2902.73C3048.49,2902.33 3052.3,2908.85 3052.18,2922.01C3051.56,2988.72 3051.48,3055.42 3051.37,3122.13C3051.33,3142.94 3053.02,3144.44 3074.22,3144.45C3135.65,3144.49 3197.06,3144.18 3258.48,3144.68C3272.48,3144.79 3278.35,3140.66 3278.29,3125.73C3278.02,3060.1 3278.71,2994.45 3278.97,2928.82C3279.07,2902.87 3278.99,2902.87 3305.63,2902.85C3323.63,2902.85 3341.63,2902.85 3359.63,2902.82C3384.55,2902.79 3384.74,2902.88 3384.76,2927.2C3384.8,3015.61 3384.78,3104.03 3384.77,3192.45C3384.77,3296.76 3384.78,3401.06 3384.72,3505.37C3384.71,3527.52 3383.26,3528.84 3361.51,3529.01C3339.81,3529.19 3318.1,3529.08 3296.41,3529.69C3285.48,3530 3279.85,3525.81 3278.03,3514.79C3276.18,3503.53 3279.2,3492.67 3279.12,3481.57C3278.62,3410.65 3278.42,3339.72 3278.41,3268.79C3278.41,3258.45 3274.84,3252.98 3264.03,3252.29C3199.49,3248.18 3134.9,3250.85 3070.34,3250.4C3054.74,3250.3 3051.21,3259.66 3051.26,3273.34C3051.52,3350.12 3051.38,3426.89 3051.33,3503.66C3051.31,3528.85 3051.23,3528.82 3025.7,3528.85C3006.65,3528.87 2987.58,3529 2968.53,3529.05C2943.69,3529.13 2942.01,3527.49 2942.01,3503.47L2942.01,3214.38L2942.09,3214.38Z" style="fill:rgb(34,179,95);fill-rule:nonzero;"/>
            </g>
        </g>
        <g transform="matrix(1,0,0,1,-992.126,-1765.19)">
            <g>
                <path d="M2634.66,3117.43C2633.12,3117.49 2631.59,3117.56 2630.06,3117.62C2610.67,3179.54 2591.16,3241.42 2572.02,3303.41C2568.03,3316.35 2574.3,3322.32 2587.4,3322.28C2616,3322.21 2644.6,3322.45 2673.2,3322.27C2690.96,3322.15 2693.64,3318.08 2688.59,3300.98C2678.41,3266.54 2668.37,3232.06 2658.25,3197.59C2650.4,3170.87 2642.52,3144.15 2634.66,3117.43M2630.3,3412.36C2604.36,3412.36 2578.41,3412.66 2552.47,3412.22C2540.95,3412.02 2534.38,3415.31 2530.58,3427.51C2520.34,3460.29 2508.2,3492.46 2497.33,3525.05C2493.96,3535.18 2488.1,3539.34 2477.49,3539.21C2449.96,3538.86 2422.42,3539.35 2394.89,3539.17C2376.66,3539.04 2374.58,3536.84 2380.42,3519.93C2393.72,3481.44 2407.82,3443.23 2421.84,3404.98C2434.39,3370.77 2447.28,3336.69 2459.98,3302.53C2477.12,3256.47 2494.42,3210.47 2511.27,3164.3C2523.05,3132.02 2533.89,3099.39 2545.71,3067.12C2563.52,3018.51 2582.38,2970.28 2599.61,2921.48C2606.13,2903.04 2620,2906.88 2633.35,2906.07C2646.1,2905.3 2655.9,2907.79 2660.9,2921.45C2683.07,2982.04 2705.57,3042.5 2728.12,3102.95C2751.05,3164.41 2774.24,3225.78 2797.2,3287.22C2819.03,3345.65 2840.66,3404.17 2862.51,3462.59C2869.74,3481.9 2877.51,3500.99 2884.82,3520.26C2890.37,3534.89 2888.25,3538.74 2872.69,3539.01C2842.52,3539.54 2812.34,3539.19 2782.15,3539.18C2771.08,3539.18 2764.72,3533.68 2761.75,3522.97C2752.84,3490.93 2743.3,3459.07 2734.51,3427C2731.08,3414.46 2721.89,3412.51 2711.32,3412.46C2684.31,3412.32 2657.31,3412.41 2630.3,3412.41L2630.3,3412.36Z" style="fill:rgb(34,179,95);fill-rule:nonzero;"/>
            </g>
        </g>
        <g transform="matrix(1,0,0,1,-992.126,-1764.54)">
            <g>
                <path d="M3698.21,3118.28C3696.05,3120.8 3695.07,3121.49 3694.75,3122.4C3674.02,3181.28 3657.67,3241.53 3638.84,3301C3634.41,3315.03 3639.73,3320.74 3653.47,3321.06C3684.17,3321.8 3714.81,3321.9 3745.53,3320.15C3759.5,3319.36 3759.81,3314.73 3756.47,3303.6C3740.4,3249.97 3724.98,3196.16 3709.13,3142.47C3706.79,3134.53 3704.31,3126.46 3698.21,3118.28M3896.08,3538.62C3882.31,3538.62 3868.53,3538.38 3854.77,3538.68C3842.39,3538.96 3834.21,3533.73 3831.72,3521.51C3825.66,3491.77 3811.01,3464.91 3803.57,3435.6C3798.08,3413.93 3794.35,3411.68 3772.73,3411.64C3721.88,3411.54 3671.03,3412.08 3620.2,3411.4C3606.03,3411.21 3598.99,3416.52 3595.35,3429.79C3587.82,3457.28 3579.42,3484.53 3571.36,3511.87C3563.87,3537.27 3561.39,3538.86 3535.48,3538.56C3509.54,3538.26 3483.58,3538.41 3457.63,3538.55C3445.79,3538.61 3441.6,3535.38 3446.2,3522.38C3462.43,3476.63 3479.08,3431.06 3496.38,3385.68C3508.57,3353.71 3519.23,3320.96 3530.87,3288.69C3552.77,3228.03 3576.24,3167.94 3598.6,3107.44C3621.32,3045.96 3644.32,2984.55 3665.42,2922.51C3672.06,2902.97 3685.38,2906.09 3699.37,2905.39C3712.7,2904.73 3721.2,2907.21 3726.87,2922.22C3754.18,2994.43 3781.3,3066.71 3807.99,3139.16C3833.02,3207.08 3858.79,3274.75 3883.86,3342.68C3906.01,3402.68 3928.75,3462.47 3951.85,3522.12C3956.25,3533.49 3954.27,3537.86 3942.13,3537.72C3926.78,3537.54 3911.43,3537.67 3896.08,3537.67L3896.08,3538.62" style="fill:rgb(34,179,95);fill-rule:nonzero;"/>
            </g>
        </g>
        <g transform="matrix(1,0,0,1,-992.126,-533.48)">
            <g>
                <path d="M1798.2,2757.28C1767.61,2757.28 1742.79,2750.82 1723.74,2737.89C1704.69,2724.95 1692.52,2707.36 1687.24,2685.11L1748.14,2653.83C1755.37,2679.97 1774.01,2693.04 1804.04,2693.04C1829.63,2693.04 1843.95,2684.84 1847.01,2668.43C1848.68,2660.08 1845.83,2653.48 1838.46,2648.61C1831.09,2643.75 1818.09,2638.11 1799.45,2631.72C1771.92,2622.54 1751.41,2610.79 1737.92,2596.47C1724.43,2582.14 1719.92,2562.05 1724.36,2536.19C1728.81,2508.93 1741.33,2488.35 1761.91,2474.45C1782.49,2460.54 1806.27,2453.59 1833.24,2453.59C1857.16,2453.59 1877.95,2459.29 1895.61,2470.69C1913.27,2482.09 1925.85,2498.36 1933.36,2519.5L1874.96,2550.37C1864.67,2528.68 1848.82,2517.83 1827.4,2517.83C1817.39,2517.83 1809.4,2519.92 1803.42,2524.09C1797.44,2528.26 1793.75,2533.54 1792.36,2539.94C1790.69,2548.01 1793.41,2554.61 1800.5,2559.76C1807.59,2564.9 1819.9,2570.67 1837.42,2577.07C1842.7,2579.02 1847.08,2580.61 1850.56,2581.87C1854.03,2583.12 1858.27,2584.79 1863.28,2586.87C1868.29,2588.96 1872.39,2590.9 1875.59,2592.71C1878.78,2594.52 1882.54,2596.74 1886.85,2599.39C1891.16,2602.03 1894.64,2604.74 1897.28,2607.52C1899.92,2610.3 1902.7,2613.43 1905.62,2616.91C1908.54,2620.38 1910.77,2624.14 1912.3,2628.17C1913.83,2632.2 1915.15,2636.51 1916.26,2641.1C1917.37,2645.69 1917.86,2650.77 1917.72,2656.33C1917.58,2661.89 1916.96,2667.87 1915.84,2674.27C1911.12,2700.97 1898.25,2721.48 1877.26,2735.8C1856.26,2750.12 1829.91,2757.28 1798.2,2757.28Z" style="fill:rgb(226,101,26);fill-rule:nonzero;"/>
            </g>
        </g>
        <g transform="matrix(1,0,0,1,-992.126,-533.48)">
            <g>
                <path d="M2072.7,2757.28C2030.42,2757.28 1996.84,2741.99 1971.95,2711.4C1947.06,2680.8 1938.51,2644.09 1946.3,2601.26C1953.8,2557.88 1973.76,2522.42 2006.16,2494.89C2038.56,2467.35 2077.42,2453.59 2122.76,2453.59C2164.47,2453.59 2197.78,2468.88 2222.67,2499.48C2247.56,2530.07 2256.25,2566.78 2248.74,2609.61C2240.95,2652.99 2220.93,2688.45 2188.67,2715.98C2156.41,2743.52 2117.75,2757.28 2072.7,2757.28ZM2079.79,2692.21C2104.26,2692.21 2126.3,2684.14 2145.91,2668.01C2165.52,2651.88 2177.54,2631.02 2181.99,2605.44C2186.44,2579.85 2182.06,2558.99 2168.85,2542.86C2155.64,2526.73 2136.94,2518.67 2112.74,2518.67C2088.55,2518.67 2067,2526.73 2048.08,2542.86C2029.17,2558.99 2017.49,2579.85 2013.04,2605.44C2008.59,2631.3 2012.62,2652.23 2025.14,2668.22C2037.65,2684.21 2055.87,2692.21 2079.79,2692.21Z" style="fill:rgb(226,101,26);fill-rule:nonzero;"/>
            </g>
        </g>
        <g transform="matrix(1,0,0,1,-992.126,-533.48)">
            <g>
                <path d="M2339.26,2687.2L2443.55,2687.2L2432.29,2751.44L2261.25,2751.44L2272.52,2687.2L2312.57,2459.43L2379.31,2459.43L2339.26,2687.2Z" style="fill:rgb(226,101,26);fill-rule:nonzero;"/>
            </g>
        </g>
        <g transform="matrix(1,0,0,1,-992.126,-533.48)">
            <g>
                <path d="M2512.8,2459.43L2579.55,2459.43L2528.24,2751.44L2461.49,2751.44L2512.8,2459.43Z" style="fill:rgb(226,101,26);fill-rule:nonzero;"/>
            </g>
        </g>
        <g transform="matrix(1,0,0,1,-992.126,-533.48)">
            <g>
                <path d="M2746.42,2459.43C2784.79,2459.43 2815.6,2474.17 2838.82,2503.65C2862.04,2533.13 2870.04,2568.45 2862.8,2609.61C2855.57,2651.05 2836.38,2685.04 2805.24,2711.6C2774.09,2738.16 2737.38,2751.44 2695.1,2751.44L2578.3,2751.44L2629.61,2459.43L2746.42,2459.43ZM2798.56,2603.35C2803.01,2578.6 2799.4,2559.13 2787.71,2544.95C2776.03,2530.76 2758.51,2523.67 2735.15,2523.67L2685.09,2523.67L2656.31,2687.2L2702.2,2687.2C2726.95,2687.2 2748.08,2679.55 2765.61,2664.26C2783.13,2648.96 2794.11,2628.66 2798.56,2603.35Z" style="fill:rgb(226,101,26);fill-rule:nonzero;"/>
            </g>
        </g>
        <g transform="matrix(1,0,0,1,-992.126,-533.48)">
            <g>
                <path d="M3052.61,2751.44L3046.77,2705.55L2938.31,2705.55L2914.95,2751.44L2841.95,2751.44L2992.54,2459.43L3077.64,2459.43L3125.62,2751.44L3052.61,2751.44ZM2969.6,2642.98L3039.26,2642.98L3025.5,2532.43L2969.6,2642.98Z" style="fill:rgb(226,101,26);fill-rule:nonzero;"/>
            </g>
        </g>
        <g transform="matrix(1,0,0,1,-992.126,-533.48)">
            <g>
                <path d="M3401.36,2563.72C3397.75,2583.19 3389.96,2600.08 3378,2614.4C3366.04,2628.73 3351.16,2639.36 3333.36,2646.32L3375.92,2751.44L3308.33,2751.44L3270.37,2655.5L3234.08,2655.5L3217.39,2751.44L3150.65,2751.44L3201.96,2459.43L3314.59,2459.43C3342.4,2459.43 3365.07,2469.93 3382.59,2490.92C3400.11,2511.92 3406.37,2536.19 3401.36,2563.72ZM3320.43,2586.66C3327.94,2579.43 3332.67,2570.39 3334.62,2559.55C3336.56,2548.7 3334.69,2539.73 3328.98,2532.64C3323.28,2525.55 3314.87,2522 3303.75,2522L3257.86,2522L3244.51,2597.09L3294.57,2597.09C3304.58,2597.09 3313.2,2593.62 3320.43,2586.66Z" style="fill:rgb(226,101,26);fill-rule:nonzero;"/>
            </g>
        </g>
        <g transform="matrix(1,0,0,1,-992.126,-533.48)">
            <g>
                <path d="M3458.51,2459.43L3525.26,2459.43L3473.95,2751.44L3407.2,2751.44L3458.51,2459.43Z" style="fill:rgb(226,101,26);fill-rule:nonzero;"/>
            </g>
        </g>
        <g transform="matrix(1,0,0,1,-992.126,-533.48)">
            <g>
                <path d="M3771.39,2459.43L3760.12,2523.67L3685.03,2523.67L3644.99,2751.44L3578.24,2751.44L3618.29,2523.67L3543.2,2523.67L3554.46,2459.43L3771.39,2459.43Z" style="fill:rgb(226,101,26);fill-rule:nonzero;"/>
            </g>
        </g>
        <g transform="matrix(1,0,0,1,-992.126,-616.91)">
            <g>
                <path d="M3977.05,2459.43L3920.31,2517.83L3858.57,2517.83L3900.29,2459.43L3977.05,2459.43ZM3970.79,2607.1L3856.07,2607.1L3847.31,2655.91L3952.02,2655.91L3940.75,2718.48L3836.46,2718.48L3827.29,2770.63L3944.09,2770.63L3932.83,2834.87L3749.28,2834.87L3800.59,2542.86L3982.05,2542.86L3970.79,2607.1Z" style="fill:rgb(226,101,26);fill-rule:nonzero;"/>
            </g>
        </g>
    </g>
</svg>
