<?xml version="1.0" encoding="UTF-8" standalone="no"?>
<!DOCTYPE svg PUBLIC "-//W3C//DTD SVG 1.1//EN" "http://www.w3.org/Graphics/SVG/1.1/DTD/svg11.dtd">
<svg width="100%" height="100%" viewBox="0 0 3686 3686" version="1.1" xmlns="http://www.w3.org/2000/svg" xmlns:xlink="http://www.w3.org/1999/xlink" xml:space="preserve" xmlns:serif="http://www.serif.com/" style="fill-rule:evenodd;clip-rule:evenodd;stroke-linejoin:round;stroke-miterlimit:2;">
    <g transform="matrix(1,0,0,1,-992.126,-992.13)">
        <g transform="matrix(1,0,0,1,0,-757.42)">
            <path d="M1760.28,2897.47C1773.52,2897.47 1786.77,2897.75 1800,2897.38C1811.24,2897.06 1817.73,2901.65 1820.41,2912.86C1842.31,3004.47 1873.61,3093.46 1896.8,3184.73C1901.22,3202.13 1906.85,3219.23 1912.31,3236.34C1913.51,3240.07 1913.95,3245.97 1918.95,3246.09C1924.5,3246.23 1926.47,3240.74 1927.62,3236.15C1932.51,3216.63 1939.56,3197.81 1945.73,3178.7C1970.2,3102.85 1993.52,3026.64 2017.32,2950.58C2021.42,2937.47 2026.04,2924.52 2029.91,2911.36C2032.71,2901.81 2038.59,2897.95 2048.41,2897.4C2084.3,2895.39 2085.16,2896.11 2095.88,2930.84C2125.34,3026.29 2155.11,3121.65 2187.01,3216.33C2189.36,3223.3 2190.26,3230.75 2192.25,3237.86C2193.25,3241.4 2195.05,3245.21 2199.57,3245.12C2204.15,3245.02 2205.39,3240.94 2206.5,3237.48C2212.15,3219.85 2217.77,3202.22 2223.12,3184.5C2236.7,3139.47 2250.22,3094.41 2263.62,3049.32C2276.86,3004.78 2290.31,2960.29 2302.78,2915.53C2306.36,2902.67 2312.41,2896.96 2326,2897.3C2352.47,2897.98 2378.96,2897.65 2405.44,2897.44C2417.51,2897.35 2421.67,2901.84 2418,2914.03C2400.77,2971.15 2384.11,3028.46 2366.89,3085.59C2359.24,3110.95 2351.64,3136.31 2343.99,3161.67C2329.65,3209.24 2315.19,3256.78 2300.13,3304.12C2284.14,3354.41 2270.67,3405.47 2252.91,3455.23C2246.01,3474.57 2241.96,3494.95 2236.91,3514.94C2232.95,3530.63 2221.28,3531.04 2208.36,3530.77C2195.87,3530.51 2184.65,3531.23 2179.56,3515.4C2150.8,3425.83 2121.22,3336.54 2092.21,3247.06C2084.22,3222.4 2077.47,3197.34 2069.55,3172.66C2068.14,3168.24 2067.07,3160.7 2060.37,3161.67C2055.32,3162.4 2055.24,3169.1 2053.91,3173.52C2030.17,3252.5 2004.85,3330.98 1979.42,3409.44C1967.86,3445.1 1956.18,3480.78 1945.64,3516.77C1942.76,3526.6 1937.84,3531.1 1927.73,3530.55C1921.39,3530.22 1914.99,3530.16 1908.67,3530.63C1895.93,3531.55 1889.43,3525.76 1886.15,3513.5C1864.74,3433.33 1837.96,3354.74 1815.19,3274.94C1787.05,3176.32 1755.09,3078.8 1724.82,2980.79C1718.12,2959.11 1711.76,2937.32 1704.88,2915.7C1701.09,2903.8 1703.66,2897.19 1717.39,2897.41C1731.68,2897.66 1745.98,2897.47 1760.28,2897.47" style="fill:rgb(35,31,32);fill-rule:nonzero;"/>
        </g>
        <g transform="matrix(1,0,0,1,0,-2060.04)">
            <path d="M3510.1,4044.35C3465.78,4047.29 3425.35,4038.05 3385.57,4029.5C3336.9,4019.03 3292.74,3995.69 3251.65,3967.17C3212.7,3940.13 3172.65,3914.67 3135.04,3885.71C3094.99,3854.88 3054.29,3824.85 3015.04,3793.02C2991.01,3773.54 2966.38,3772.33 2941.53,3796.08C2904.07,3831.88 2862.16,3862.46 2825.09,3898.81C2792.04,3931.21 2754.05,3958.23 2720.82,3990.81C2674.63,4036.09 2620.25,4070.21 2562.08,4098.28C2545.59,4106.23 2529.56,4109.58 2510.29,4104.8C2494.79,4100.95 2478.27,4099.17 2462.46,4095.45C2440.7,4090.32 2420.16,4081.72 2403.7,4066.07C2391.43,4054.42 2392.52,4045.32 2407.2,4037.17C2479.65,3996.95 2539.28,3941.28 2597.55,3883.32C2639.13,3841.96 2680.62,3800.35 2723.65,3760.53C2770.25,3717.42 2822.42,3681.26 2879.02,3651.96C2912.37,3634.7 2949.04,3628.14 2985.43,3622.72C3003.79,3619.98 3022.93,3626.62 3040.01,3635.46C3066.62,3649.22 3087.27,3670.64 3108.75,3690.77C3128.82,3709.58 3148.03,3729.35 3167.13,3749.18C3201.74,3785.13 3242.31,3813.91 3282,3843.53C3317.07,3869.69 3353.58,3894.29 3393.63,3912.46C3442.65,3934.7 3492.02,3954.2 3546.98,3960.19C3583.6,3964.17 3620.57,3965.53 3657.02,3971.34C3670.25,3973.44 3682.42,3978.68 3694.52,3983.85C3704.76,3988.22 3705.91,3994.51 3697.41,4003.19C3687.71,4013.09 3675.37,4018.79 3663.25,4022.7C3636.23,4031.42 3608.47,4039.48 3580.01,4040.57C3555.72,4041.51 3531.78,4048.4 3510.1,4044.35" style="fill:rgb(35,31,32);fill-rule:nonzero;"/>
        </g>
        <g transform="matrix(1,0,0,1,0,-762.81)">
            <path d="M2942.09,3214.38C2942.09,3118.02 2942.08,3021.66 2942.1,2925.3C2942.1,2903.86 2943.06,2902.88 2964.34,2902.85C2987.64,2902.82 3010.95,2903.37 3034.23,2902.73C3048.49,2902.33 3052.3,2908.85 3052.18,2922.01C3051.56,2988.72 3051.48,3055.42 3051.37,3122.13C3051.33,3142.94 3053.02,3144.44 3074.22,3144.45C3135.65,3144.49 3197.06,3144.18 3258.48,3144.68C3272.48,3144.79 3278.35,3140.66 3278.29,3125.73C3278.02,3060.1 3278.71,2994.45 3278.97,2928.82C3279.07,2902.87 3278.99,2902.87 3305.63,2902.85C3323.63,2902.85 3341.63,2902.85 3359.63,2902.82C3384.55,2902.79 3384.74,2902.88 3384.76,2927.2C3384.8,3015.61 3384.78,3104.03 3384.77,3192.45C3384.77,3296.76 3384.78,3401.06 3384.72,3505.37C3384.71,3527.52 3383.26,3528.84 3361.51,3529.01C3339.81,3529.19 3318.1,3529.08 3296.41,3529.69C3285.48,3530 3279.85,3525.81 3278.03,3514.79C3276.18,3503.53 3279.2,3492.67 3279.12,3481.57C3278.62,3410.65 3278.42,3339.72 3278.41,3268.79C3278.41,3258.45 3274.84,3252.98 3264.03,3252.29C3199.49,3248.18 3134.9,3250.85 3070.34,3250.4C3054.74,3250.3 3051.21,3259.66 3051.26,3273.34C3051.52,3350.12 3051.38,3426.89 3051.33,3503.66C3051.31,3528.85 3051.23,3528.82 3025.7,3528.85C3006.65,3528.87 2987.58,3529 2968.53,3529.05C2943.69,3529.13 2942.01,3527.49 2942.01,3503.47L2942.01,3214.38L2942.09,3214.38Z" style="fill:rgb(35,31,32);fill-rule:nonzero;"/>
        </g>
        <g transform="matrix(1,0,0,1,0,-773.06)">
            <path d="M2634.66,3117.43C2633.12,3117.49 2631.59,3117.56 2630.06,3117.62C2610.67,3179.54 2591.16,3241.42 2572.02,3303.41C2568.03,3316.35 2574.3,3322.32 2587.4,3322.28C2616,3322.21 2644.6,3322.45 2673.2,3322.27C2690.96,3322.15 2693.64,3318.08 2688.59,3300.98C2678.41,3266.54 2668.37,3232.06 2658.25,3197.59C2650.4,3170.87 2642.52,3144.15 2634.66,3117.43M2630.3,3412.36C2604.36,3412.36 2578.41,3412.66 2552.47,3412.22C2540.95,3412.02 2534.38,3415.31 2530.58,3427.51C2520.34,3460.29 2508.2,3492.46 2497.33,3525.05C2493.96,3535.18 2488.1,3539.34 2477.49,3539.21C2449.96,3538.86 2422.42,3539.35 2394.89,3539.17C2376.66,3539.04 2374.58,3536.84 2380.42,3519.93C2393.72,3481.44 2407.82,3443.23 2421.84,3404.98C2434.39,3370.77 2447.28,3336.69 2459.98,3302.53C2477.12,3256.47 2494.42,3210.47 2511.27,3164.3C2523.05,3132.02 2533.89,3099.39 2545.71,3067.12C2563.52,3018.51 2582.38,2970.28 2599.61,2921.48C2606.13,2903.04 2620,2906.88 2633.35,2906.07C2646.1,2905.3 2655.9,2907.79 2660.9,2921.45C2683.07,2982.04 2705.57,3042.5 2728.12,3102.95C2751.05,3164.41 2774.24,3225.78 2797.2,3287.22C2819.03,3345.65 2840.66,3404.17 2862.51,3462.59C2869.74,3481.9 2877.51,3500.99 2884.82,3520.26C2890.37,3534.89 2888.25,3538.74 2872.69,3539.01C2842.52,3539.54 2812.34,3539.19 2782.15,3539.18C2771.08,3539.18 2764.72,3533.68 2761.75,3522.97C2752.84,3490.93 2743.3,3459.07 2734.51,3427C2731.08,3414.46 2721.89,3412.51 2711.32,3412.46C2684.31,3412.32 2657.31,3412.41 2630.3,3412.41L2630.3,3412.36Z" style="fill:rgb(35,31,32);fill-rule:nonzero;"/>
        </g>
        <g transform="matrix(1,0,0,1,0,-772.41)">
            <path d="M3698.21,3118.28C3696.05,3120.8 3695.07,3121.49 3694.75,3122.4C3674.02,3181.28 3657.67,3241.53 3638.84,3301C3634.41,3315.03 3639.73,3320.74 3653.47,3321.06C3684.17,3321.8 3714.81,3321.9 3745.53,3320.15C3759.5,3319.36 3759.81,3314.73 3756.47,3303.6C3740.4,3249.97 3724.98,3196.16 3709.13,3142.47C3706.79,3134.53 3704.31,3126.46 3698.21,3118.28M3896.08,3538.62C3882.31,3538.62 3868.53,3538.38 3854.77,3538.68C3842.39,3538.96 3834.21,3533.73 3831.72,3521.51C3825.66,3491.77 3811.01,3464.91 3803.57,3435.6C3798.08,3413.93 3794.35,3411.68 3772.73,3411.64C3721.88,3411.54 3671.03,3412.08 3620.2,3411.4C3606.03,3411.21 3598.99,3416.52 3595.35,3429.79C3587.82,3457.28 3579.42,3484.53 3571.36,3511.87C3563.87,3537.27 3561.39,3538.86 3535.48,3538.56C3509.54,3538.26 3483.58,3538.41 3457.63,3538.55C3445.79,3538.61 3441.6,3535.38 3446.2,3522.38C3462.43,3476.63 3479.08,3431.06 3496.38,3385.68C3508.57,3353.71 3519.23,3320.96 3530.87,3288.69C3552.77,3228.03 3576.24,3167.94 3598.6,3107.44C3621.32,3045.96 3644.32,2984.55 3665.42,2922.51C3672.06,2902.97 3685.38,2906.09 3699.37,2905.39C3712.7,2904.73 3721.2,2907.21 3726.87,2922.22C3754.18,2994.43 3781.3,3066.71 3807.99,3139.16C3833.02,3207.08 3858.79,3274.75 3883.86,3342.68C3906.01,3402.68 3928.75,3462.47 3951.85,3522.12C3956.25,3533.49 3954.27,3537.86 3942.13,3537.72C3926.78,3537.54 3911.43,3537.67 3896.08,3537.67L3896.08,3538.62" style="fill:rgb(35,31,32);fill-rule:nonzero;"/>
        </g>
        <g transform="matrix(1,0,0,1,0,1561.59)">
            <path d="M2555.93,2141.59C2571.27,2141.59 2586.6,2141.46 2601.94,2141.64C2610.55,2141.74 2614.49,2137.93 2614.42,2129.25C2614.26,2109.15 2614.41,2089.06 2614.39,2068.97C2614.39,2062.54 2612.59,2056.9 2604.99,2056.87C2580.16,2056.79 2555.31,2056.76 2530.5,2057.51C2522.82,2057.74 2517.42,2063.92 2512.06,2069.1C2498.46,2082.21 2491.07,2118.31 2498.31,2135.25C2500.99,2141.51 2506.23,2141.54 2511.52,2141.58C2526.32,2141.69 2541.13,2141.62 2555.93,2141.59M2498.22,2010.93C2519.07,1987.48 2544.22,1984.8 2571.05,1985.92C2591.66,1986.77 2612.34,1985.97 2632.99,1986.11C2664.54,1986.33 2678.74,2000.29 2678.95,2031.54C2679.15,2062.78 2679.4,2094.03 2678.85,2125.26C2678.63,2137.73 2683.37,2141.9 2695.65,2141.8C2750.18,2141.37 2804.73,2141.33 2859.26,2141.83C2872.2,2141.95 2875.57,2136.53 2875.43,2124.72C2874.98,2087.66 2875.7,2050.59 2875.01,2013.53C2874.76,1999.72 2879.47,1994.11 2893.39,1995.22C2903.92,1996.06 2914.58,1995.79 2925.15,1995.34C2936.24,1994.85 2939.96,1999.91 2939.91,2010.57C2939.65,2065.11 2940.14,2119.64 2939.63,2174.17C2939.41,2197.9 2926.42,2209.8 2902.5,2209.8C2712.95,2209.85 2523.4,2209.83 2333.84,2209.71C2304.7,2209.69 2294.81,2196.55 2296.09,2166.56C2297.61,2131.15 2296.66,2095.63 2296.69,2060.16C2296.73,2011.97 2296.99,1963.79 2296.49,1915.61C2296.37,1903.31 2299.83,1898.08 2312.84,1899.72C2322.22,1900.91 2331.9,1900.59 2341.39,1899.99C2353.73,1899.23 2358.36,1904.32 2358.18,1916.66C2357.7,1950.01 2358.04,1983.37 2358.04,2016.73C2358.05,2052.2 2358.48,2087.68 2357.84,2123.14C2357.59,2136.54 2361.39,2142.87 2375.79,2141.72C2387.89,2140.77 2400.2,2140.78 2412.29,2141.82C2427.48,2143.13 2431.33,2136.38 2431.05,2122.32C2430.32,2086.33 2430.77,2050.31 2430.81,2014.31C2430.84,1990.17 2431.19,1989.88 2456.01,1989.85C2462.89,1989.84 2469.81,1990.23 2476.66,1989.8C2490.35,1988.94 2500.6,1991.56 2498.22,2010.93" style="fill:rgb(35,31,32);fill-rule:nonzero;"/>
        </g>
        <g transform="matrix(1,0,0,1,0,1739.48)">
            <path d="M2198.03,1922.16C2198.03,1920.57 2198.06,1918.99 2198.03,1917.4C2197.22,1873.1 2204.71,1878.98 2157.89,1878.57C2138.72,1878.4 2124.57,1892.12 2123.35,1911.54C2122.95,1917.86 2123.13,1924.21 2123.18,1930.55C2123.47,1968.35 2119.54,1963.38 2156.07,1963.69C2198.1,1964.04 2198.11,1963.85 2198.03,1922.16M2063.63,2031.99C2010.68,2031.99 1957.72,2032.29 1904.78,2031.78C1891.71,2031.65 1885.03,2035.88 1880.52,2048.79C1868.85,2082.2 1844.32,2102.22 1809.79,2109.54C1749.55,2122.3 1702.77,2096.21 1681.06,2038.27C1678.99,2032.73 1677.59,2027.21 1677.6,2021.29C1677.63,1990.05 1677.76,1958.81 1677.54,1927.57C1677.45,1915.71 1681.16,1909.94 1694.5,1911.68C1705.95,1913.18 1717.79,1913.04 1729.34,1912.06C1740.92,1911.09 1744.28,1915.89 1744.14,1926.54C1743.82,1952.48 1744,1978.43 1744.12,2004.37C1744.26,2032.92 1756.42,2045.59 1784.04,2046.23C1808.56,2046.8 1823.49,2032.23 1823.75,2005.25C1824.28,1951.77 1823.88,1898.29 1823.88,1844.81C1823.89,1820.83 1823.91,1820.54 1847.4,1820.76C1897.65,1821.23 1889.84,1814.23 1890.43,1863.38C1890.74,1889.32 1890.44,1915.27 1890.5,1941.21C1890.55,1963.61 1890.65,1963.75 1912.21,1963.78C1954.03,1963.84 1995.87,1963.84 2037.7,1963.8C2058.41,1963.77 2058.42,1963.66 2058.46,1942.09C2058.49,1930.97 2057.56,1919.71 2058.95,1908.76C2064.27,1866.89 2087.43,1837.23 2123.59,1816.73C2135.02,1810.25 2147.02,1807.74 2160.09,1808.06C2179.67,1808.54 2199.27,1807.9 2218.86,1808.24C2245.45,1808.71 2259.04,1822.38 2259.1,1848.39C2259.21,1896.57 2259.21,1944.75 2259.14,1992.94C2259.1,2020.44 2247.96,2031.84 2220.89,2031.91C2168.47,2032.02 2116.05,2031.94 2063.63,2031.94L2063.63,2031.99Z" style="fill:rgb(35,31,32);fill-rule:nonzero;"/>
        </g>
        <g transform="matrix(1,0,0,1,0,1654.79)">
            <path d="M3435.44,2116.58C3372.43,2116.58 3309.42,2116.59 3246.41,2116.58C3213.64,2116.58 3200.59,2103.99 3200,2070.54C3199.48,2040.9 3199.37,2011.23 3199.97,1981.6C3200.25,1968 3195.52,1961.97 3181.57,1963.11C3164.89,1964.47 3145.84,1957.89 3135.99,1979.15C3126.32,2000.02 3130.69,2021.74 3131.86,2043.16C3132.18,2049.12 3138.96,2050.52 3144.28,2051.08C3150.06,2051.69 3155.91,2051.76 3161.73,2051.7C3175.25,2051.56 3182.57,2056.9 3181.73,2071.62C3181.01,2084.29 3181.45,2097.03 3181.47,2109.74C3181.47,2117.45 3177.74,2122.95 3170.07,2121.42C3141.4,2115.68 3111.28,2117.55 3084.1,2103.61C3072.07,2097.45 3066.23,2088.03 3066.26,2076.02C3066.36,2044.88 3063.78,2013.75 3068.59,1982.57C3076.94,1928.41 3120.8,1894.4 3173.15,1892.95C3187.96,1892.54 3202.8,1892.8 3217.62,1892.85C3247.35,1892.95 3263.59,1908.62 3264.09,1938.79C3264.59,1968.96 3264.75,1999.16 3264.03,2029.32C3263.69,2043.71 3268.72,2048.81 3283.34,2048.73C3371.23,2048.21 3459.13,2048.5 3547.02,2048.38C3564.09,2048.36 3565.35,2046.42 3561.04,2029.83C3549.46,1985.26 3523.92,1965.11 3476.27,1963.32C3464.64,1962.88 3452.97,1963.03 3441.33,1963.22C3430.98,1963.39 3424.94,1959.21 3425.73,1948.27C3426.84,1933 3428.06,1917.74 3429.78,1902.53C3430.83,1893.26 3438.58,1891.48 3445.33,1893.44C3467.9,1900.03 3491.32,1895.52 3514.39,1900.84C3536.72,1905.98 3556.93,1914.86 3575.35,1926.39C3594.87,1938.63 3606.15,1959.99 3613.05,1981.76C3618.58,1999.23 3625.62,2016.56 3627.03,2035.28C3627.47,2041.11 3629.71,2047.37 3636.86,2047.99C3647.87,2048.93 3649.44,2056.01 3648.8,2064.68C3647.56,2081.37 3656.15,2102.48 3645.12,2113.56C3635.48,2123.25 3614.82,2116.35 3599.06,2116.44C3544.52,2116.77 3489.98,2116.57 3435.44,2116.58" style="fill:rgb(35,31,32);fill-rule:nonzero;"/>
        </g>
        <g transform="matrix(1,0,0,1,0,1770.17)">
            <path d="M3855.32,1894.06C3855.32,1897.77 3855.52,1899.9 3855.29,1902C3851.79,1933.54 3878.73,1948.9 3910.64,1941.03C3919.63,1938.81 3922.78,1933.76 3926.17,1925.67C3936.47,1901.11 3925.58,1877.9 3923.47,1854.17C3923.3,1852.27 3920.27,1850 3918.07,1849.01C3895.73,1838.94 3866.39,1850.39 3857.64,1872.17C3854.54,1879.86 3855.73,1887.79 3855.32,1894.06M3991.3,1881.38C3992.9,1927.22 3990.66,1975.56 3978.6,2021.9C3966.5,2068.39 3940.03,2105.58 3887.66,2114.86C3876.83,2116.78 3867,2122.76 3855.29,2121.45C3847.18,2120.55 3842.1,2118.12 3842.09,2109.3C3842.09,2095 3841.5,2080.67 3842.34,2066.42C3843.19,2051.81 3854.87,2050.77 3865.67,2051.09C3890.24,2051.84 3905.21,2039.03 3914.93,2018.1C3917.12,2013.39 3920.53,2007.87 3916.69,2003.3C3913.23,1999.18 3907.88,2002.95 3903.3,2003.2C3861.9,2005.54 3819.23,2000.08 3801.47,1947.6C3787.1,1905.1 3786.15,1865.25 3809.87,1825.92C3829.93,1792.68 3861.17,1780.37 3897.54,1777.71C3912.81,1776.59 3928.23,1777.45 3943.58,1777.55C3972.2,1777.75 3990.7,1796.05 3991.24,1825.07C3991.58,1843.06 3991.3,1861.07 3991.3,1881.38" style="fill:rgb(35,31,32);fill-rule:nonzero;"/>
        </g>
        <g transform="matrix(1,0,0,1,0,1561.38)">
            <path d="M3752.99,2056.72C3752.99,2101.68 3752.63,2146.65 3753.21,2191.62C3753.39,2205.05 3749.48,2211.43 3735.19,2210.2C3725.22,2209.34 3715.08,2209.54 3705.07,2210.14C3692.44,2210.89 3688.63,2205.05 3688.57,2193.11C3688.14,2107.44 3687.03,2021.77 3686.68,1936.1C3686.54,1900.32 3687.15,1900.21 3722.23,1900.4C3754.48,1900.57 3753.07,1896.71 3753.06,1931.34C3753.04,1973.13 3753.06,2014.93 3753.06,2056.72L3752.99,2056.72Z" style="fill:rgb(35,31,32);fill-rule:nonzero;"/>
        </g>
        <g transform="matrix(0.99997,-0.00772067,-0.00772067,-0.99997,16.9056,5693.69)">
            <path d="M3139.31,2143.39C3116.31,2141.09 3107.82,2159.3 3105.37,2178.73C3103.12,2196.48 3121.29,2212.8 3139.31,2213.33C3161.97,2214 3172.6,2195.85 3174.07,2177.98C3175.64,2159.01 3158.51,2143.35 3139.31,2143.39" style="fill:rgb(35,31,32);fill-rule:nonzero;"/>
        </g>
        <g transform="matrix(-0.999993,0.00386098,0.00386098,0.999993,5835.58,1300.05)">
            <path d="M2922.03,2144.85C2899.94,2143.45 2889.07,2162.65 2888.55,2180.78C2887.95,2201.03 2902.22,2214.81 2922.03,2214.78C2941.27,2214.77 2956.23,2199.01 2955.98,2179.03C2955.75,2159.91 2940.62,2144.68 2922.03,2144.85" style="fill:rgb(35,31,32);fill-rule:nonzero;"/>
        </g>
        <g transform="matrix(0.999967,-0.00816007,-0.00816007,-0.999967,17.8708,5692.72)">
            <path d="M2852.74,2143.43C2832.98,2143.67 2818.62,2158.82 2818.91,2179.13C2819.19,2198.51 2834.1,2213.55 2852.74,2213.29C2871.57,2213.03 2885.8,2196.9 2885.39,2176.25C2885.02,2157.03 2871.28,2143.22 2852.74,2143.43" style="fill:rgb(35,31,32);fill-rule:nonzero;"/>
        </g>
        <g transform="matrix(-0.014677,-0.999892,-0.999892,0.014677,4770.48,6013.82)">
            <path d="M2554.42,2146.05C2533.51,2146.18 2520.02,2158.2 2520.07,2176.63C2520.15,2198.52 2532.75,2211.05 2554.42,2210.78C2577.53,2210.48 2589.97,2198.1 2589.76,2175.64C2589.61,2157.91 2575.28,2145.93 2554.42,2146.05" style="fill:rgb(35,31,32);fill-rule:nonzero;"/>
        </g>
        <g transform="matrix(0.0311236,-0.999516,-0.999516,-0.0311236,5286.83,6766.89)">
            <path d="M3208.46,2146.04C3188.31,2145.66 3174.72,2158.13 3174.6,2177.1C3174.45,2197.43 3186.9,2209.75 3208.46,2210.62C3229.23,2211.47 3244.21,2197.66 3244.44,2177.44C3244.65,2159.07 3230.19,2146.45 3208.46,2146.04" style="fill:rgb(35,31,32);fill-rule:nonzero;"/>
        </g>
        <g transform="matrix(0.99977,0.0214599,0.0214599,-0.99977,-45.8868,5630.73)">
            <path d="M1784.14,2123.09C1765.29,2123.32 1751.01,2137.66 1751.03,2156.35C1751.02,2175.59 1766.24,2191.99 1784.14,2192.05C1803.24,2192.13 1817.94,2176.18 1817.73,2155.63C1817.51,2136.37 1803.56,2122.85 1784.14,2123.09" style="fill:rgb(35,31,32);fill-rule:nonzero;"/>
        </g>
        <g transform="matrix(1,0,0,1,0,-0.225)">
            <path d="M2834.65,992.355C3851.56,992.355 4677.17,1817.95 4677.17,2834.88C4677.17,3851.78 3851.56,4677.39 2834.65,4677.39C1817.73,4677.39 992.126,3851.78 992.126,2834.88C992.126,1817.95 1817.73,992.355 2834.65,992.355ZM2834.65,1162.37C1911.57,1162.37 1162.14,1911.8 1162.14,2834.88C1162.14,3757.95 1911.57,4507.38 2834.65,4507.38C3757.73,4507.38 4507.15,3757.95 4507.15,2834.88C4507.15,2740.08 4499.25,2647.12 4484.06,2556.61C4351.4,1765.78 3662.93,1162.37 2834.65,1162.37Z"/>
        </g>
        <g transform="matrix(1,0,0,1,0,458.65)">
            <path d="M1798.2,2757.28C1767.61,2757.28 1742.79,2750.82 1723.74,2737.89C1704.69,2724.95 1692.52,2707.36 1687.24,2685.11L1748.14,2653.83C1755.37,2679.97 1774.01,2693.04 1804.04,2693.04C1829.63,2693.04 1843.95,2684.84 1847.01,2668.43C1848.68,2660.08 1845.83,2653.48 1838.46,2648.61C1831.09,2643.75 1818.09,2638.11 1799.45,2631.72C1771.92,2622.54 1751.41,2610.79 1737.92,2596.47C1724.43,2582.14 1719.92,2562.05 1724.36,2536.19C1728.81,2508.93 1741.33,2488.35 1761.91,2474.45C1782.49,2460.54 1806.27,2453.59 1833.24,2453.59C1857.16,2453.59 1877.95,2459.29 1895.61,2470.69C1913.27,2482.09 1925.85,2498.36 1933.36,2519.5L1874.96,2550.37C1864.67,2528.68 1848.82,2517.83 1827.4,2517.83C1817.39,2517.83 1809.4,2519.92 1803.42,2524.09C1797.44,2528.26 1793.75,2533.54 1792.36,2539.94C1790.69,2548.01 1793.41,2554.61 1800.5,2559.76C1807.59,2564.9 1819.9,2570.67 1837.42,2577.07C1842.7,2579.02 1847.08,2580.61 1850.56,2581.87C1854.03,2583.12 1858.27,2584.79 1863.28,2586.87C1868.29,2588.96 1872.39,2590.9 1875.59,2592.71C1878.78,2594.52 1882.54,2596.74 1886.85,2599.39C1891.16,2602.03 1894.64,2604.74 1897.28,2607.52C1899.92,2610.3 1902.7,2613.43 1905.62,2616.91C1908.54,2620.38 1910.77,2624.14 1912.3,2628.17C1913.83,2632.2 1915.15,2636.51 1916.26,2641.1C1917.37,2645.69 1917.86,2650.77 1917.72,2656.33C1917.58,2661.89 1916.96,2667.87 1915.84,2674.27C1911.12,2700.97 1898.25,2721.48 1877.26,2735.8C1856.26,2750.12 1829.91,2757.28 1798.2,2757.28Z" style="fill-rule:nonzero;"/>
        </g>
        <g transform="matrix(1,0,0,1,0,458.65)">
            <path d="M2072.7,2757.28C2030.42,2757.28 1996.84,2741.99 1971.95,2711.4C1947.06,2680.8 1938.51,2644.09 1946.3,2601.26C1953.8,2557.88 1973.76,2522.42 2006.16,2494.89C2038.56,2467.35 2077.42,2453.59 2122.76,2453.59C2164.47,2453.59 2197.78,2468.88 2222.67,2499.48C2247.56,2530.07 2256.25,2566.78 2248.74,2609.61C2240.95,2652.99 2220.93,2688.45 2188.67,2715.98C2156.41,2743.52 2117.75,2757.28 2072.7,2757.28ZM2079.79,2692.21C2104.26,2692.21 2126.3,2684.14 2145.91,2668.01C2165.52,2651.88 2177.54,2631.02 2181.99,2605.44C2186.44,2579.85 2182.06,2558.99 2168.85,2542.86C2155.64,2526.73 2136.94,2518.67 2112.74,2518.67C2088.55,2518.67 2067,2526.73 2048.08,2542.86C2029.17,2558.99 2017.49,2579.85 2013.04,2605.44C2008.59,2631.3 2012.62,2652.23 2025.14,2668.22C2037.65,2684.21 2055.87,2692.21 2079.79,2692.21Z" style="fill-rule:nonzero;"/>
        </g>
        <g transform="matrix(1,0,0,1,0,458.65)">
            <path d="M2339.26,2687.2L2443.55,2687.2L2432.29,2751.44L2261.25,2751.44L2272.52,2687.2L2312.57,2459.43L2379.31,2459.43L2339.26,2687.2Z" style="fill-rule:nonzero;"/>
        </g>
        <g transform="matrix(1,0,0,1,0,458.65)">
            <path d="M2512.8,2459.43L2579.55,2459.43L2528.24,2751.44L2461.49,2751.44L2512.8,2459.43Z" style="fill-rule:nonzero;"/>
        </g>
        <g transform="matrix(1,0,0,1,0,458.65)">
            <path d="M2746.42,2459.43C2784.79,2459.43 2815.6,2474.17 2838.82,2503.65C2862.04,2533.13 2870.04,2568.45 2862.8,2609.61C2855.57,2651.05 2836.38,2685.04 2805.24,2711.6C2774.09,2738.16 2737.38,2751.44 2695.1,2751.44L2578.3,2751.44L2629.61,2459.43L2746.42,2459.43ZM2798.56,2603.35C2803.01,2578.6 2799.4,2559.13 2787.71,2544.95C2776.03,2530.76 2758.51,2523.67 2735.15,2523.67L2685.09,2523.67L2656.31,2687.2L2702.2,2687.2C2726.95,2687.2 2748.08,2679.55 2765.61,2664.26C2783.13,2648.96 2794.11,2628.66 2798.56,2603.35Z" style="fill-rule:nonzero;"/>
        </g>
        <g transform="matrix(1,0,0,1,0,458.65)">
            <path d="M3052.61,2751.44L3046.77,2705.55L2938.31,2705.55L2914.95,2751.44L2841.95,2751.44L2992.54,2459.43L3077.64,2459.43L3125.62,2751.44L3052.61,2751.44ZM2969.6,2642.98L3039.26,2642.98L3025.5,2532.43L2969.6,2642.98Z" style="fill-rule:nonzero;"/>
        </g>
        <g transform="matrix(1,0,0,1,0,458.65)">
            <path d="M3401.36,2563.72C3397.75,2583.19 3389.96,2600.08 3378,2614.4C3366.04,2628.73 3351.16,2639.36 3333.36,2646.32L3375.92,2751.44L3308.33,2751.44L3270.37,2655.5L3234.08,2655.5L3217.39,2751.44L3150.65,2751.44L3201.96,2459.43L3314.59,2459.43C3342.4,2459.43 3365.07,2469.93 3382.59,2490.92C3400.11,2511.92 3406.37,2536.19 3401.36,2563.72ZM3320.43,2586.66C3327.94,2579.43 3332.67,2570.39 3334.62,2559.55C3336.56,2548.7 3334.69,2539.73 3328.98,2532.64C3323.28,2525.55 3314.87,2522 3303.75,2522L3257.86,2522L3244.51,2597.09L3294.57,2597.09C3304.58,2597.09 3313.2,2593.62 3320.43,2586.66Z" style="fill-rule:nonzero;"/>
        </g>
        <g transform="matrix(1,0,0,1,0,458.65)">
            <path d="M3458.51,2459.43L3525.26,2459.43L3473.95,2751.44L3407.2,2751.44L3458.51,2459.43Z" style="fill-rule:nonzero;"/>
        </g>
        <g transform="matrix(1,0,0,1,0,458.65)">
            <path d="M3771.39,2459.43L3760.12,2523.67L3685.03,2523.67L3644.99,2751.44L3578.24,2751.44L3618.29,2523.67L3543.2,2523.67L3554.46,2459.43L3771.39,2459.43Z" style="fill-rule:nonzero;"/>
        </g>
        <g transform="matrix(1,0,0,1,0,375.22)">
            <path d="M3977.05,2459.43L3920.31,2517.83L3858.57,2517.83L3900.29,2459.43L3977.05,2459.43ZM3970.79,2607.1L3856.07,2607.1L3847.31,2655.91L3952.02,2655.91L3940.75,2718.48L3836.46,2718.48L3827.29,2770.63L3944.09,2770.63L3932.83,2834.87L3749.28,2834.87L3800.59,2542.86L3982.05,2542.86L3970.79,2607.1Z" style="fill-rule:nonzero;"/>
        </g>
        <g transform="matrix(1,0,0,1,0,1021.96)">
            <path d="M3953.99,2303.28C3965.3,2303.28 3974.49,2312.47 3974.49,2323.78C3974.49,2335.1 3965.3,2344.28 3953.99,2344.28L1689.46,2344.28C1678.15,2344.28 1668.96,2335.1 1668.96,2323.78C1668.96,2312.47 1678.15,2303.28 1689.46,2303.28L3953.99,2303.28Z"/>
        </g>
    </g>
</svg>
